# xmcd CD database file
#
# Track frame offsets:
#	150
#	20355
#	43092
#	62965
#	93215
#	114478
#	122640
#
# Disc length: 2074 seconds
#
# Revision: 1
# Processed by: cddbd v1.5.2PL0 Copyright (c) Steve Scherf et al.
# Submitted via: CDex 1.70beta2
#
DISCID=56081807
DTITLE=VELTPUNCH - WHITE ALBUM
DYEAR=2007
DGENRE=Emocore
TTITLE0=Sports
TTITLE1=Cyndi...come back
TTITLE2=無愛想に降り続ける雨のせいではない。
TTITLE3=teenage dirty punks
TTITLE4=my place
TTITLE5=HAPPY SONG II
TTITLE6=fragile
EXTD=YEAR: 2007
EXTT0=
EXTT1=
EXTT2=
EXTT3=
EXTT4=
EXTT5=
EXTT6=
PLAYORDER=
